<svg width="19" height="20" viewBox="0 0 19 20" fill="none" xmlns="http://www.w3.org/2000/svg">
    <path fill-rule="evenodd" clip-rule="evenodd"
        d="M17.4201 0.770846C17.7801 0.410955 18.3538 0.408838 18.7275 0.769787C19.0906 1.13285 19.0906 1.71926 18.7286 2.08127L1.57987 19.229C1.40943 19.3994 1.16383 19.5 0.924581 19.5C0.690624 19.5 0.459843 19.4047 0.273524 19.2322C-0.0906438 18.8543 -0.0906437 18.2795 0.270349 17.9186L3.09689 15.0924H3.0683C1.65927 15.0924 0.633458 14.0974 0.442905 12.552C0.230121 11.0066 0.272466 8.36031 0.442905 6.9525C0.642986 5.49177 1.72385 4.48725 3.0683 4.48725H4.89867L8.39215 1.62929C8.81666 1.2694 9.56828 0.929621 10.1495 0.920095C11.2081 0.920095 12.182 1.65999 12.5314 2.84551C12.669 3.34407 12.723 3.8405 12.7653 4.31789L12.849 4.99427C12.8627 5.09801 12.8754 5.19751 12.886 5.30336L17.4201 0.770846ZM11.8809 11.2314C12.0238 11.0917 12.3435 10.9911 12.4874 11.0282C12.876 11.1266 12.9522 11.6844 12.9458 12.1227C12.9278 13.395 12.8855 14.2799 12.8177 14.8271L12.7701 15.2781L12.7693 15.2864C12.724 15.74 12.6772 16.2094 12.5425 16.7102C12.19 17.8936 11.2446 18.6621 10.1701 18.6621C10.1352 18.6621 10.1002 18.6621 10.0642 18.661C9.47036 18.661 8.82671 18.3054 8.46149 17.9952L7.16043 16.9886C6.66605 16.6213 6.81214 16.0349 7.0895 15.6951C7.29663 15.4422 9.78605 13.1569 11.0935 11.9566C11.5369 11.5496 11.8444 11.2673 11.8809 11.2314Z"
        fill="black" />
</svg>
    