<svg width="22" height="19" viewBox="0 0 22 19" fill="none" xmlns="http://www.w3.org/2000/svg">
    <path fill-rule="evenodd" clip-rule="evenodd"
        d="M12.3571 3.95056C12.3068 3.46422 12.2543 2.95963 12.1254 2.45611C11.7741 1.25153 10.801 0.50001 9.75762 0.50001C9.17565 0.497862 8.43954 0.856445 8.0222 1.21932L4.56287 4.11697H2.75194C1.41918 4.11697 0.347511 5.1444 0.145131 6.62705C-0.0268386 8.05064 -0.0687825 10.7379 0.145131 12.3042C0.330733 13.8706 1.35416 14.883 2.75194 14.883H4.56287L8.08931 17.8236C8.45107 18.1382 9.08967 18.4989 9.67688 18.4989C9.71463 18.5 9.74819 18.5 9.78174 18.5C10.845 18.5 11.7814 17.7206 12.1327 16.5192C12.265 16.0113 12.3114 15.5352 12.3563 15.0752L12.3571 15.0666L12.4043 14.6082C12.5846 13.1213 12.5846 5.86908 12.4043 4.39288L12.3571 3.95056ZM16.4066 3.99458C16.1182 3.56943 15.5467 3.46315 15.1283 3.75839C14.7141 4.05577 14.6114 4.64196 14.8997 5.06603C15.7019 6.24807 16.1434 7.82196 16.1434 9.5C16.1434 11.177 15.7019 12.7519 14.8997 13.934C14.6114 14.358 14.7141 14.9442 15.1294 15.2416C15.2846 15.3511 15.466 15.4091 15.6526 15.4091C15.9536 15.4091 16.2346 15.2577 16.4066 15.0054C17.4195 13.5131 17.9784 11.5581 17.9784 9.5C17.9784 7.44191 17.4195 5.48688 16.4066 3.99458ZM18.2901 0.721064C18.7074 0.42475 19.281 0.533184 19.5673 0.957256C21.136 3.26657 22 6.30164 22 9.49989C22 12.7003 21.136 15.7343 19.5673 18.0436C19.3963 18.2959 19.1143 18.4473 18.8133 18.4473C18.6267 18.4473 18.4463 18.3893 18.2911 18.2798C17.8759 17.9824 17.7731 17.3973 18.0604 16.9722C19.4173 14.9731 20.165 12.3192 20.165 9.49989C20.165 6.68169 19.4173 4.02775 18.0604 2.02871C17.7731 1.60464 17.8759 1.01845 18.2901 0.721064Z"
        fill="black" />
</svg>
    