<svg width="20" height="21" viewBox="0 0 20 21" fill="none" xmlns="http://www.w3.org/2000/svg">
    <path fill-rule="evenodd" clip-rule="evenodd" d="M0 10.5058C0 4.98625 4.48842 0.5 10 0.5C15.5116 0.5 20 4.98625 20 10.5058C20 16.0137 15.5116 20.5 10 20.5C4.48842 20.5 0 16.0137 0 10.5058ZM13.668 11.5178C13.7741 11.4117 13.9093 11.2477 13.9382 11.2091C14.0927 11.0065 14.1699 10.7557 14.1699 10.5058C14.1699 10.225 14.083 9.96454 13.9189 9.75229C13.9055 9.73885 13.8791 9.71019 13.8448 9.67284C13.7806 9.60296 13.6885 9.50264 13.6004 9.41462C12.8089 8.56561 10.7432 7.17631 9.66216 6.75181C9.49807 6.68524 9.08301 6.53956 8.861 6.52991C8.64865 6.52991 8.44595 6.57815 8.2529 6.67463C8.01158 6.8097 7.81853 7.02195 7.71236 7.27279C7.64479 7.44645 7.53861 7.96744 7.53861 7.97709C7.43243 8.54631 7.37452 9.4725 7.37452 10.4952C7.37452 11.4706 7.43243 12.3572 7.51931 12.9361C7.52169 12.9385 7.53 12.9799 7.5429 13.0442C7.58211 13.2397 7.6638 13.6471 7.75097 13.814C7.96332 14.2192 8.37838 14.4701 8.82239 14.4701H8.861C9.15058 14.4604 9.75869 14.2096 9.75869 14.2C10.7819 13.7754 12.7992 12.4537 13.61 11.5757L13.668 11.5178Z" fill="white"/>
    </svg>
    